<svg width="110" height="111" viewBox="0 0 110 111" fill="none" xmlns="http://www.w3.org/2000/svg">
<path d="M53.2393 104.998C51.5673 104.998 50.0713 104.822 48.5753 104.558C42.9433 103.326 38.9833 99.982 37.0473 94.702C36.6953 93.822 36.6073 92.854 36.7833 91.886C36.9593 90.918 37.3113 90.038 37.9273 89.246C42.5033 83.702 53.9433 80.182 59.8393 81.238C60.5433 81.326 61.2473 81.678 61.7753 82.206C62.3033 82.734 62.7433 83.35 62.9193 84.054C63.2713 85.638 63.5353 87.222 63.6233 88.806V88.894C63.6233 88.894 63.6233 88.982 63.7113 88.982H63.7993H63.8873C68.9033 87.31 74.2713 83.702 79.2873 78.51C84.3033 73.318 87.6473 67.774 89.1433 62.67V62.582V62.494L89.0553 62.406H88.9673C87.3833 62.406 85.7993 62.23 84.2153 61.966C83.5113 61.79 82.8073 61.438 82.2793 60.91C81.7513 60.382 81.3993 59.766 81.2233 58.974C79.9033 53.166 82.9833 41.55 88.3513 36.71C89.0553 36.094 89.9353 35.654 90.9033 35.39C91.8713 35.214 92.8393 35.214 93.7193 35.566C98.9993 37.238 102.607 41.11 104.015 46.654C106.919 57.918 100.495 74.11 88.1753 86.958C77.5273 98.222 64.0633 104.998 53.2393 104.998ZM57.5513 83.702C52.4473 83.702 43.5593 86.518 39.9513 90.918C39.5993 91.27 39.4233 91.798 39.3353 92.326C39.2473 92.854 39.3353 93.382 39.5113 93.822C41.0953 98.222 44.3513 101.038 49.1033 102.006C59.6633 104.206 74.5353 97.518 86.2393 85.286C98.0313 73.142 104.103 57.918 101.463 47.446C100.319 42.782 97.3273 39.614 92.9273 38.206C92.3993 38.03 91.8713 38.03 91.4313 38.118C90.9033 38.206 90.4633 38.47 90.1113 38.822C85.2713 43.134 82.8073 53.958 83.8633 58.446C83.9513 58.71 84.0393 58.886 84.2153 59.062C84.3913 59.238 84.5673 59.326 84.8313 59.414C86.2393 59.678 87.6473 59.854 89.0553 59.854C89.4953 59.854 89.9353 59.942 90.2873 60.118C90.6393 60.294 90.9913 60.558 91.2553 60.91C91.5193 61.262 91.6953 61.702 91.7833 62.054C91.8713 62.494 91.8713 62.934 91.6953 63.374C90.1113 68.918 86.4153 74.814 81.1353 80.358C75.7673 85.902 70.0473 89.686 64.5913 91.534C64.1513 91.71 63.7113 91.71 63.2713 91.622C62.8313 91.534 62.3913 91.358 62.0393 91.182C61.6873 91.006 61.4233 90.566 61.1593 90.214C60.8953 89.862 60.8073 89.422 60.8073 88.982C60.7193 87.574 60.5433 86.078 60.1913 84.67C60.1033 84.494 60.0153 84.23 59.8393 84.054C59.6633 83.878 59.4873 83.79 59.2233 83.702C58.8713 83.702 58.2553 83.702 57.5513 83.702Z" fill="black"/>
<path d="M46.1999 67.246H28.1599C27.7199 67.246 27.3679 67.158 27.0159 66.894C26.6639 66.718 26.3999 66.366 26.3119 66.014C26.1359 65.662 26.1359 65.222 26.1359 64.87C26.2239 64.518 26.3999 64.166 26.6639 63.814L27.3679 63.022C32.9999 56.95 38.7199 50.526 42.2399 45.95C43.9999 43.662 44.2639 40.758 43.0319 38.118C41.8879 35.566 39.5119 33.982 36.7839 33.894C36.6079 33.894 36.5199 33.894 36.3439 33.894C34.0559 33.894 31.9439 34.774 30.3599 36.358C28.7759 37.942 27.8959 40.142 27.8959 42.342C27.8959 43.046 27.2799 43.662 26.5759 43.662C25.8719 43.662 25.2559 43.046 25.2559 42.342C25.2559 39.35 26.3999 36.534 28.5119 34.422C30.6239 32.31 33.4399 31.166 36.4319 31.166C36.6079 31.166 36.7839 31.166 36.9599 31.166C40.6559 31.342 43.8239 33.542 45.4959 36.974C47.0799 40.406 46.7279 44.454 44.4399 47.534C40.9199 52.198 35.1999 58.534 29.6559 64.606H46.2879C46.9919 64.606 47.6079 65.222 47.6079 65.926C47.6079 66.63 46.9039 67.246 46.1999 67.246Z" fill="black"/>
<path d="M69.2558 67.246C68.5518 67.246 67.9358 66.63 67.9358 65.926V56.598H51.3038C51.0398 56.598 50.7758 56.51 50.5118 56.334C50.2478 56.158 50.0718 55.982 49.9838 55.718C49.8958 55.454 49.8078 55.19 49.8958 54.926C49.8958 54.662 50.0718 54.398 50.2478 54.134L68.0238 31.958C68.1998 31.694 68.4638 31.518 68.8158 31.43C69.0798 31.342 69.4318 31.342 69.6958 31.43C69.9598 31.518 70.2238 31.694 70.3998 31.958C70.5758 32.222 70.6638 32.574 70.6638 32.838V53.782H73.2158C73.9198 53.782 74.5358 54.398 74.5358 55.102C74.5358 55.806 73.9198 56.422 73.2158 56.422H70.6638V65.75C70.5758 66.718 69.9598 67.246 69.2558 67.246ZM53.7678 53.958H68.0238V36.27L53.7678 53.958Z" fill="black"/>
<path d="M32.0313 89.51C31.8553 89.51 31.6793 89.51 31.5033 89.422C23.6713 85.99 17.1593 80.446 12.4953 73.318C7.7433 66.19 5.2793 57.918 5.2793 49.382C5.2793 25.182 25.2553 5.47 49.8073 5.47C49.8953 5.47 49.8953 5.47 49.9833 5.47C58.1673 5.47 66.2633 7.758 73.2153 12.07C80.2553 16.382 85.9753 22.542 89.6713 29.934C90.0233 30.55 89.7593 31.342 89.0553 31.694C88.4393 32.046 87.6473 31.782 87.2953 31.078C83.7753 24.126 78.4073 18.318 71.8073 14.27C65.2073 10.222 57.6393 8.11 49.8953 8.11H49.8073C26.6633 8.11 7.9193 26.59 7.9193 49.382C7.9193 57.39 10.2953 65.134 14.6953 71.822C19.0953 78.51 25.2553 83.79 32.5593 86.958C33.2633 87.222 33.5273 88.014 33.2633 88.718C32.9993 89.246 32.5593 89.51 32.0313 89.51Z" fill="black"/>
<path d="M49.8063 12.862C49.1023 12.862 48.4863 12.246 48.4863 11.542V6.79C48.4863 6.086 49.1023 5.47 49.8063 5.47C50.5103 5.47 51.1263 6.086 51.1263 6.79V11.542C51.1263 12.334 50.5103 12.862 49.8063 12.862Z" fill="black"/>
<path d="M30.8869 17.966C30.4469 17.966 30.0069 17.702 29.7429 17.262L27.3669 13.126C27.0149 12.51 27.1909 11.718 27.8069 11.366C28.4229 11.014 29.2149 11.19 29.5669 11.806L31.9429 15.942C32.2949 16.558 32.1189 17.35 31.5029 17.702C31.3269 17.878 31.0629 17.966 30.8869 17.966Z" fill="black"/>
<path d="M16.9828 31.782C16.7188 31.782 16.5428 31.694 16.3668 31.606L12.2308 29.23C11.6148 28.878 11.3508 28.086 11.7908 27.47C12.1428 26.854 12.9348 26.59 13.5508 27.03L17.6868 29.406C18.3028 29.758 18.5668 30.55 18.1268 31.166C17.9508 31.606 17.4228 31.782 16.9828 31.782Z" fill="black"/>
<path d="M7.21453 50.702C6.51053 50.702 5.89453 50.086 5.89453 49.382C5.89453 48.678 6.51053 48.062 7.21453 48.062H11.9665C12.6705 48.062 13.2865 48.678 13.2865 49.382C13.2865 50.086 12.6705 50.702 11.9665 50.702H7.21453Z" fill="black"/>
<path d="M12.9347 72.086C12.4947 72.086 12.0547 71.822 11.7907 71.47C11.4387 70.854 11.6147 70.062 12.2307 69.71L16.3667 67.334C16.9827 66.982 17.7747 67.158 18.1267 67.774C18.4787 68.39 18.3027 69.182 17.6867 69.534L13.5507 71.91C13.3747 71.998 13.1107 72.086 12.9347 72.086Z" fill="black"/>
<path d="M28.5106 87.662C28.2466 87.662 28.0706 87.574 27.8946 87.486C27.2786 87.134 27.0146 86.342 27.3666 85.726L29.7426 81.59C30.0946 80.974 30.8866 80.71 31.5026 81.062C32.1186 81.414 32.3826 82.206 32.0306 82.822L29.6546 86.958C29.3906 87.398 28.9506 87.662 28.5106 87.662Z" fill="black"/>
<path d="M82.456 31.694C82.016 31.694 81.576 31.43 81.312 31.078C80.96 30.462 81.224 29.582 81.84 29.23L85.976 26.854C86.592 26.502 87.384 26.678 87.736 27.294C88.088 27.91 87.912 28.702 87.296 29.142L83.16 31.518C82.984 31.694 82.72 31.694 82.456 31.694Z" fill="black"/>
<path d="M68.6396 17.878C68.3756 17.878 68.1996 17.79 68.0236 17.702C67.4076 17.35 67.1436 16.558 67.4956 15.942L69.8716 11.806C70.2236 11.19 71.0156 10.926 71.6316 11.278C72.2476 11.63 72.5116 12.422 72.1596 13.038L69.7836 17.174C69.5196 17.702 69.0796 17.878 68.6396 17.878Z" fill="black"/>
</svg>
