<svg width="84" height="84" viewBox="0 0 84 84" fill="none" xmlns="http://www.w3.org/2000/svg">
<path d="M54.5521 10.5L57.6038 11.312C61.336 12.3067 64.7381 14.2475 67.4709 16.9411C70.2037 19.6347 72.1717 22.9868 73.1786 26.6632L74 29.6656L67.9028 31.2866L67.0782 28.2842C66.3587 25.6581 64.9527 23.2638 63.0004 21.34C61.048 19.4161 58.6176 18.0301 55.9516 17.32L52.903 16.5048L54.5521 10.5ZM7.00009 11.1627H34.1059L38.8036 31.9773L32.9275 37.7643C36.3825 43.0598 40.9541 47.561 46.3319 50.9624L52.208 45.1785L73.3429 49.805V76.4999H70.1837C58.0219 76.5203 46.1152 73.0662 35.9066 66.5562C28.379 61.7585 21.9684 55.4451 17.0968 48.0316C10.4866 37.9777 6.97935 26.2515 7.00009 14.274V11.1627ZM13.4038 17.3853C13.9361 27.0923 17.0391 36.4929 22.4043 44.6527C26.7902 51.3263 32.5612 57.0097 39.3375 61.3292C47.6228 66.6131 57.1682 69.669 67.0245 70.1933V54.7955L54.2204 51.9953L47.3523 58.7624L45.2578 57.5895C37.305 53.1386 30.7209 46.6544 26.2016 38.8221L25.0106 36.7593L31.8818 29.9954L29.0385 17.3853H13.4038ZM51.6646 21.01L54.7164 21.822C56.5824 22.3193 58.2835 23.2898 59.6499 24.6365C61.0163 25.9833 62.0003 27.6594 62.5037 29.4976L63.3251 32.5L57.2279 34.121L56.4034 31.1186C56.1873 30.3307 55.7653 29.6124 55.1793 29.0354C54.5934 28.4583 53.8641 28.0427 53.0641 27.8299L50.0155 27.0179L51.6646 21.01Z" fill="white"/>
</svg>
