<svg width="21" height="27" viewBox="0 0 21 27" fill="none" xmlns="http://www.w3.org/2000/svg">
<path d="M19.9973 21.2771L16.2038 17.4835L16.0231 17.3029C15.7521 17.1222 15.5715 17.0319 15.3005 16.9416C14.7586 16.761 14.2167 16.8513 13.6747 17.1222L12.1392 18.0255C11.9586 17.9352 11.7779 17.7545 11.5973 17.5739C11.236 17.2126 10.8747 16.8513 10.5134 16.3997C9.9715 15.7674 9.51988 15.0448 9.15859 14.3222C8.70698 13.5997 8.34569 12.8771 8.07472 12.1545C7.89408 11.7029 7.71343 11.161 7.62311 10.7093C7.53279 10.4384 7.53279 10.1674 7.53279 9.89644L8.7973 9.17386C9.15859 8.90289 9.51988 8.63193 9.70053 8.18031C9.88117 7.7287 9.9715 7.27709 9.88117 6.82547L8.34569 1.58677V1.49644C8.25537 1.3158 8.16504 1.04483 7.9844 0.773862C7.71343 0.502894 7.44246 0.322249 7.08117 0.231927C6.81021 0.141604 6.62956 0.141604 6.35859 0.231927C6.08763 0.231927 5.90698 0.322249 5.63601 0.502894L1.75214 2.67064C1.48117 2.85128 1.21021 3.03193 0.939239 3.30289C0.758594 3.57386 0.577949 3.84483 0.487626 4.1158V4.20612C0.487626 4.20612 0.397303 4.38677 0.397303 4.65773C0.306981 5.10935 0.216658 5.56096 0.126336 6.01257C0.0360131 6.64483 0.0360131 7.36741 0.126336 7.99967C0.216658 8.90289 0.306981 9.80612 0.577949 10.619C0.848916 11.7029 1.21021 12.7868 1.66182 13.8706C2.20376 15.2255 2.83601 16.49 3.64892 17.7545C4.55214 19.29 5.54569 20.8255 6.71988 22.09C7.62311 23.0835 8.52633 23.9868 9.61021 24.7997C10.3328 25.3416 11.1457 25.8835 11.9586 26.2448C12.4102 26.4255 12.9521 26.6964 13.4941 26.7868C13.6747 26.7868 13.765 26.8771 13.8554 26.8771H13.9457H14.036C14.1263 26.8771 14.2167 26.8771 14.3973 26.8771C14.5779 26.8771 14.8489 26.8771 15.0296 26.7868C15.3909 26.6964 15.6618 26.6061 15.9328 26.4255L19.8167 24.1674C20.0876 23.9868 20.2683 23.8061 20.4489 23.5352C20.6296 23.2642 20.7199 22.9932 20.7199 22.7222V22.6319C20.7199 22.361 20.7199 22.09 20.5392 21.819C20.3586 21.7287 20.1779 21.4577 19.9973 21.2771Z" fill="white"/>
</svg>
