<svg width="82" height="83" viewBox="0 0 82 83" fill="none" xmlns="http://www.w3.org/2000/svg">
<path d="M17.082 61.69V74.5572L22.2583 71.4514L38.5285 61.69H54.6654C58.4339 61.69 61.4987 58.6253 61.4987 54.8567V27.5233C61.4987 23.7548 58.4339 20.69 54.6654 20.69H13.6654C9.89678 20.69 6.83203 23.7548 6.83203 27.5233V54.8567C6.83203 58.6253 9.89678 61.69 13.6654 61.69H17.082ZM13.6654 27.5233H54.6654V54.8567H36.6356L23.9154 62.4895V54.8567H13.6654V27.5233Z" fill="white"/>
<path d="M68.3333 7.02332H27.3333C23.5647 7.02332 20.5 10.0881 20.5 13.8566H61.5C65.2686 13.8566 68.3333 16.9214 68.3333 20.69V48.0233C72.1019 48.0233 75.1667 44.9586 75.1667 41.19V13.8566C75.1667 10.0881 72.1019 7.02332 68.3333 7.02332Z" fill="white"/>
</svg>
