<svg width="1920" height="202" viewBox="0 0 1920 202" fill="none" xmlns="http://www.w3.org/2000/svg">
<path fill-rule="evenodd" clip-rule="evenodd" d="M1920 0H0V90V101.25V112.5C8.15 120.65 10.7 123 11 123C11.3 123 12 123.5 12.65 124.15C13.25 124.75 16.5 126.6 19.85 128.25C25.45 131 26 131.35 26 132.65C26 133.4 26.25 134 26.5 134C26.8 134 27 136.15 27 139.5C27 142.85 27.2 145 27.5 145C27.75 145 28 146.15 28 147.5C28 148.9 28.25 150 28.5 150C28.75 150 29 150.8 29 151.75C29 152.7 29.25 153.6 29.5 153.75C29.75 153.9 30 154.55 30 155.25C30 155.95 30.25 156.6 30.5 156.75C30.75 156.9 31 157.45 31 158C31 158.55 31.25 159 31.5 159C31.75 159 32 159.4 32 159.9C32 160.35 32.95 162.6 34.1 164.9C35.3 167.15 36.4 169.05 36.6 169C36.85 169 37 169.45 37 170C37 170.55 37.25 171 37.5 171C37.75 171 38 171.3 38 171.65C37.95 171.95 38.65 173 39.5 173.9C40.3 174.75 41 175.7 41 176C41 176.3 43.6 179.1 46.75 182.25C49.9 185.4 52.75 188 53 188C53.25 188 54.25 188.7 55.1 189.5C56 190.35 57.05 191.05 57.35 191C57.7 191 58 191.15 58 191.4C57.95 191.6 60.3 192.95 63.1 194.4C65.95 195.8 68.65 197 69.1 197C69.6 197 70 197.2 70 197.5C70 197.8 70.45 198 71 198C71.55 198 72.1 198.2 72.25 198.5C72.4 198.8 73.05 199 73.75 199C74.45 199 75.1 199.2 75.25 199.5C75.4 199.8 76.3 200 77.25 200C78.2 200 79.1 200.2 79.25 200.5C79.4 200.8 80.3 201 81.25 201C82.2 201 83.1 201.2 83.25 201.5C83.4 201.8 87.9 202 95.25 202C102.75 202 107 201.8 107 201.5C107 201.2 107.9 201 109 201C110.1 201 111 200.8 111 200.5C111 200.2 111.9 200 113 200C114.1 200 115 199.8 115 199.5C115 199.2 115.65 199 116.5 199C117.35 199 118 198.8 118 198.5C118 198.2 118.55 198 119.25 198C119.95 198 120.6 197.8 120.75 197.5C120.9 197.2 121.45 197 122 197C122.55 197 123 196.8 123 196.5C123 196.2 123.45 196 124 196C124.55 196 125 195.8 125 195.5C125 195.2 125.45 195 126 195C126.55 195 127 194.8 127 194.5C127 194.2 127.45 194 128 194C128.55 194 129 193.8 129 193.5C129 193.2 129.3 193 129.6 193C129.95 193 130.75 192.55 131.35 192C132 191.45 132.65 191 132.85 191C133.1 191.05 134 190.35 134.85 189.5C135.75 188.7 136.7 188 137 188C137.3 188 140.1 185.4 143.25 182.25C146.4 179.1 149 176.3 149 176C149 175.7 150.2 174.25 151.65 172.75C153.05 171.25 154.65 170.05 155.1 170C155.6 170 156 170.2 156 170.5C156 170.8 156.4 171 156.85 171C157.35 171 158.1 171.45 158.5 172C158.9 172.55 159.65 173 160.1 173C160.6 173 161 173.15 161 173.4C160.95 173.6 162.85 174.7 165.1 175.9C167.4 177.05 169.65 178 170.15 178C170.6 178 171 178.2 171 178.5C171 178.8 171.7 179 172.5 179C173.3 179 174 179.2 174 179.5C174 179.8 174.7 180 175.5 180C176.3 180 177 180.2 177 180.5C177 180.8 178.15 181 179.5 181C180.9 181 182 181.2 182 181.5C182 181.8 185.65 182 192 182C198.35 182 202 181.8 202 181.5C202 181.2 203 181 204.25 181C205.5 181 206.6 180.8 206.75 180.5C206.9 180.2 207.7 180 208.5 180C209.3 180 210 179.8 210 179.5C210 179.2 210.7 179 211.5 179C212.3 179 213 178.8 213 178.5C213 178.2 213.4 178 213.9 178C214.35 178 217.05 176.8 219.9 175.4C222.7 173.95 225.05 172.6 225 172.4C225 172.15 225.4 172 225.9 172C226.35 172 227.1 171.55 227.5 171C227.9 170.45 228.5 170 228.85 170C229.2 170 232.05 167.4 235.25 164.25C238.4 161.1 241 158.15 241 157.75C241 157.35 241.15 157 241.4 157C241.6 157 242.1 156.4 242.5 155.65C242.9 154.85 243.4 154.15 243.6 154C243.8 153.85 245.3 151.05 247 147.75C248.65 144.45 250 141.45 250 141.1C250 140.8 250.4 140.1 250.85 139.65C251.45 139 251.7 138.95 251.85 139.4C251.95 139.7 252.45 140 253 140C253.55 140 254 140.25 254 140.5C254 140.75 254.45 141 255 141C255.55 141 256 141.25 256 141.5C256 141.75 256.45 142 257 142C257.55 142 258 142.25 258 142.5C258 142.75 258.45 143 259 143C259.55 143 260.1 143.25 260.25 143.5C260.4 143.75 261.05 144 261.75 144C262.45 144 263 144.25 263 144.5C263 144.75 263.7 145 264.5 145C265.3 145 266 145.25 266 145.5C266 145.75 266.9 146 268 146C269.1 146 270 146.25 270 146.5C270 146.8 273.5 147 279.5 147C285.5 147 289 146.8 289 146.5C289 146.25 290 146 291.25 146C292.5 146 293.6 145.75 293.75 145.5C293.9 145.25 294.55 145 295.25 145C295.95 145 296.6 144.75 296.75 144.5C296.9 144.25 297.4 144 297.9 144C298.35 144 301.05 142.8 303.9 141.4C306.7 139.95 309.05 138.6 309 138.4C309 138.15 309.3 138 309.65 138C309.95 138.05 310.95 137.4 311.75 136.65C312.6 135.9 313.9 134.9 314.65 134.5C315.4 134.1 316 133.6 316 133.4C316 133.15 316.45 133 317 133C317.6 133 318 133.35 318 133.9C318 134.35 318.45 135.1 319 135.5C319.55 135.9 320 136.5 320 136.75C319.95 137 320.85 138.2 322 139.4C323.1 140.55 324 141.75 324 142C324 142.25 326.35 144.85 329.25 147.75C332.15 150.65 334.75 153 335 153C335.25 153 336.45 153.9 337.65 155C338.8 156.15 339.9 157.05 340.15 157C340.35 157 341 157.45 341.65 158C342.25 158.55 343.05 159 343.4 159C343.7 159 344 159.2 344 159.5C344 159.8 344.45 160 345 160C345.55 160 346 160.15 346 160.4C345.95 160.6 347.85 161.7 350.1 162.9C352.4 164.05 354.65 165 355.15 165C355.6 165 356.1 165.2 356.25 165.5C356.4 165.8 357.05 166 357.75 166C358.45 166 359 166.2 359 166.5C359 166.8 359.7 167 360.5 167C361.3 167 362 167.2 362 167.5C362 167.8 362.9 168 364 168C365.1 168 366 168.2 366 168.5C366 168.8 367.35 169 369 169C370.65 169 372 169.2 372 169.5C372 169.8 375.85 170 382.5 170C389.15 170 393 169.8 393 169.5C393 169.2 394.35 169 396 169C397.65 169 399 168.8 399 168.5C399 168.2 400 168 401.25 168C402.5 168 403.6 167.8 403.75 167.5C403.9 167.2 404.7 167 405.5 167C406.3 167 407 166.8 407 166.5C407 166.2 407.7 166 408.5 166C409.3 166 410 165.8 410 165.5C410 165.2 410.55 165 411.25 165C411.95 165 412.6 164.8 412.75 164.5C412.9 164.2 413.45 164 414 164C414.55 164 415 163.8 415 163.5C415 163.2 415.45 163 416 163C416.55 163 418.3 162.3 419.9 161.45C421.45 160.6 422.85 159.75 423 159.6C423.15 159.4 423.85 158.9 424.65 158.5C425.4 158.1 426 157.6 426 157.4C426 157.15 426.4 157 426.9 157C427.35 157 428.1 156.55 428.5 156C428.9 155.45 429.55 155 429.85 155C430.2 155 433.5 151.95 437.25 148.25C440.95 144.55 444 141.25 444 141C444 140.75 444.7 139.75 445.5 138.9C446.35 138 447.05 136.95 447 136.65C447 136.3 447.25 136 447.5 136C447.75 136 448 135.65 448 135.25C448 134.85 448.45 134 449 133.4C449.55 132.75 450 131.95 450 131.65C450 131.3 450.25 131 450.5 131C450.75 131 451 130.55 451 130C451 129.45 451.25 129 451.5 129C451.75 129 452 128.55 452 128C452 127.45 452.25 127 452.5 127C452.75 127 453 126.55 453 126C453 125.45 453.25 125 453.5 125C453.75 125 454 124.55 454 124C454 123.45 454.25 123 454.5 123C454.75 123 455 122.55 455 122C455 121.45 455.25 121 455.5 121C455.75 121 456 120.7 456 120.4C456 120.05 456.25 119.15 456.6 118.4C456.95 117.6 457.65 117 458.15 117C458.6 117 459 117.25 459 117.5C459 117.75 459.7 118 460.5 118C461.3 118 462 118.25 462 118.5C462 118.75 462.9 119 464 119C465.1 119 466 119.25 466 119.5C466 119.75 467.15 120 468.5 120C469.9 120 471 120.25 471 120.5C471 120.8 474.15 121 479.5 121C484.85 121 488 120.8 488 120.5C488 120.25 489 120 490.25 120C491.5 120 492.6 119.75 492.75 119.5C492.9 119.25 493.7 119 494.5 119C495.3 119 496 118.75 496 118.5C496 118.25 496.4 118 496.9 118C497.35 118 500.05 116.8 502.9 115.4C505.7 113.95 508.05 112.6 508 112.4C508 112.15 508.4 112 508.9 112C509.35 112 510.1 111.55 510.5 111C510.9 110.45 511.55 110 511.9 110C512.2 110 513.85 108.65 515.5 107C517.15 105.35 518.85 104 519.25 104C519.65 104 520 104.15 520 104.4C519.95 104.6 521.85 105.7 524.1 106.9C526.4 108.05 528.65 109 529.15 109C529.6 109 530 109.25 530 109.5C530 109.75 530.9 110 532 110C533.1 110 534 110.25 534 110.5C534 110.8 536.5 111 540.5 111C545.3 111 547.05 110.85 547.15 110.4C547.3 109.95 547.55 110 548.15 110.65C548.7 111.2 549 112.35 549 113.75C549 115 549.25 116 549.5 116C549.75 116 550 116.8 550 117.75C550 118.7 550.25 119.6 550.5 119.75C550.75 119.9 551 120.4 551 120.9C551 121.35 551.9 123.55 553.05 125.75C554.15 127.95 555.5 130.1 556 130.5C556.55 130.9 556.95 131.55 557 131.9C557 132.2 558.5 133.95 560.4 135.75C562.25 137.55 564 139.05 564.25 139C564.5 139 565.1 139.45 565.5 140C565.9 140.55 566.65 141 567.15 141C567.6 141 568 141.15 568 141.4C568 141.6 568.9 142.25 570 142.9C571.1 143.5 572.45 144 573 144C573.55 144 574 144.25 574 144.5C574 144.75 574.45 145 575 145C575.55 145 576.1 145.25 576.25 145.5C576.4 145.75 577.3 146 578.25 146C579.2 146 580 146.25 580 146.5C580 146.8 583 147 588 147C593 147 596 146.8 596 146.5C596 146.25 596.9 146 598 146C599.1 146 600 145.75 600 145.5C600 145.25 600.65 145 601.5 145C602.35 145 603 144.75 603 144.5C603 144.25 603.45 144 604 144C604.8 144 605 144.35 605 145.5C605 146.35 605.25 147 605.5 147C605.75 147 606 147.9 606 149C606 150.1 606.25 151 606.5 151C606.75 151 607 151.8 607 152.75C607 153.7 607.25 154.6 607.5 154.75C607.75 154.9 608 155.55 608 156.25C608 156.95 608.25 157.6 608.5 157.75C608.75 157.9 609 158.45 609 159C609 159.55 609.25 160 609.5 160C609.75 160 610 160.4 610 160.9C610 161.35 611.2 164.05 612.6 166.9C614.05 169.7 615.4 172.05 615.65 172C615.85 172 616 172.3 616 172.65C615.95 172.95 616.65 174 617.5 174.9C618.3 175.75 619 176.7 619 177C619 177.3 621.35 179.85 624.25 182.75C627.15 185.65 629.75 188 630 188C630.25 188 631.25 188.7 632.15 189.5C633 190.35 634.05 191.05 634.4 191C634.7 191 635 191.2 635 191.5C635 191.8 635.45 192 636 192C636.55 192 637 192.15 637 192.4C636.95 192.6 638.85 193.7 641.1 194.9C643.4 196.05 645.65 197 646.15 197C646.6 197 647 197.2 647 197.5C647 197.8 647.45 198 648 198C648.55 198 649.1 198.2 649.25 198.5C649.4 198.8 650.05 199 650.75 199C651.45 199 652.1 199.2 652.25 199.5C652.4 199.8 653.05 200 653.75 200C654.45 200 655.1 200.2 655.25 200.5C655.4 200.8 656.3 201 657.25 201C658.2 201 659 201.2 659 201.5C659 201.8 663.4 202 671.25 202C678.9 202 683.6 201.8 683.75 201.5C683.9 201.2 684.9 201 686 201C687.1 201 688 200.8 688 200.5C688 200.2 688.65 200 689.5 200C690.35 200 691 199.8 691 199.5C691 199.2 691.65 199 692.5 199C693.35 199 694 198.8 694 198.5C694 198.2 694.55 198 695.25 198C695.95 198 696.6 197.8 696.75 197.5C696.9 197.2 697.45 197 698 197C698.55 197 699 196.8 699 196.5C699 196.2 699.45 196 700 196C700.55 196 701 195.8 701 195.5C701 195.2 701.45 195 702 195C702.55 195 703 194.8 703 194.5C703 194.2 703.45 194 704 194C704.55 194 705 193.8 705 193.5C705 193.2 705.3 193 705.65 193C705.95 193 706.75 192.55 707.4 192C708 191.45 708.8 191 709.15 191C709.45 191 710.1 190.55 710.5 190C710.9 189.45 711.55 189 711.9 189C712.2 189 715.3 186.2 718.75 182.75C722.2 179.3 725 176.3 725 176C725 175.7 725.7 174.75 726.5 173.9C727.35 173 728.05 171.95 728 171.65C728 171.3 728.25 171 728.5 171C728.75 171 729 170.55 729 170C729 169.45 729.15 169 729.4 169C729.6 169 730.5 167.6 731.4 165.9C732.3 164.15 733 162.35 733 161.9C733 161.4 733.25 161 733.5 161C733.75 161 734 160.55 734 160C734 159.45 734.25 159 734.5 159C734.75 159 735 158.35 735 157.5C735 156.65 735.25 156 735.5 156C735.75 156 736 155.35 736 154.5C736 153.65 736.25 153 736.5 153C736.75 153 737 152.1 737 151C737 149.9 737.25 149 737.5 149C737.75 149 738 148 738 146.75C738 145.4 738.3 144.15 738.8 143.65C739.4 142.9 739.7 142.9 740.15 143.4C740.5 143.75 741.25 144 741.9 144C742.5 144 743.1 144.25 743.25 144.5C743.4 144.8 744.3 145 745.25 145C746.2 145 747 145.25 747 145.5C747 145.8 748.15 146 749.5 146C750.9 146 752 146.25 752 146.5C752 146.8 755.35 147 761 147C766.65 147 770 146.8 770 146.5C770 146.25 770.9 146 772 146C773.1 146 774 145.8 774 145.5C774 145.25 774.65 145 775.5 145C776.35 145 777 144.8 777 144.5C777 144.25 777.4 144 777.9 144C778.35 144 781.05 142.8 783.9 141.4C786.7 139.95 789.05 138.6 789 138.4C789 138.15 789.3 138 789.65 138C789.95 138.05 791.2 137.15 792.4 136C793.55 134.9 794.75 134 795 134C795.25 134 796.4 133.1 797.5 132C798.6 130.9 799.75 130 800 130C800.25 130 801.45 130.9 802.65 132C803.8 133.15 804.9 134.05 805.15 134C805.35 134 806.25 134.7 807.15 135.5C808 136.35 809.05 137.05 809.4 137C809.7 137 810 137.25 810 137.5C810 137.8 810.45 138 811 138C811.55 138 812 138.15 812 138.4C811.95 138.6 813.85 139.7 816.1 140.9C818.4 142.05 820.65 143 821.15 143C821.6 143 822 143.25 822 143.5C822 143.8 822.65 144 823.5 144C824.35 144 825 144.25 825 144.5C825 144.8 825.65 145 826.5 145C827.35 145 828 145.25 828 145.5C828 145.8 829.15 146 830.5 146C831.9 146 833 146.25 833 146.5C833 146.8 836.65 147 843 147C849.35 147 853 146.8 853 146.5C853 146.25 854.15 146 855.5 146C856.9 146 858 145.8 858 145.5C858 145.25 858.8 145 859.75 145C860.7 145 861.6 144.8 861.75 144.5C861.9 144.25 862.45 144 863 144C863.55 144 864.8 143.55 865.75 143C866.7 142.45 867.85 142 868.25 142C868.65 142 869 141.8 869 141.5C869 141.25 869.45 141 870 141C870.55 141 871 140.8 871 140.5C871 140.25 871.45 140 872 140C872.55 140 873 139.8 873 139.5C873 139.25 873.3 139 873.65 139C873.95 139 874.75 138.55 875.4 138C876 137.45 876.65 137 876.9 137C877.1 137.05 878 136.35 878.9 135.5C879.75 134.7 880.75 134 881 134C881.25 134 883.3 132.2 885.5 130C887.7 127.8 889.75 126 890 126C890.25 126 891.25 126.7 892.15 127.5C893 128.35 893.9 129.05 894.15 129C894.35 129 895.65 130.15 897 131.5C898.4 132.9 899.75 134 900 134C900.25 134 901 134.45 901.65 135C902.25 135.55 903.05 136 903.4 136C903.7 136 904 136.15 904 136.4C904 136.6 905.05 137.3 906.35 138C907.65 138.7 908.8 139.4 908.9 139.65C908.95 139.85 909.45 140 910 140C910.55 140 911 140.25 911 140.5C911 140.8 911.35 141 911.75 141C912.15 141 913.3 141.45 914.25 142C915.2 142.55 916.45 143 917 143C917.55 143 918 143.25 918 143.5C918 143.8 918.65 144 919.5 144C920.35 144 921 144.25 921 144.5C921 144.8 921.65 145 922.5 145C923.35 145 924.1 145.25 924.25 145.5C924.4 145.8 925.5 146 926.75 146C928 146 929 146.25 929 146.5C929 146.8 933 147 940 147C947 147 951 146.8 951 146.5C951 146.25 952.15 146 953.5 146C954.9 146 956 145.8 956 145.5C956 145.25 956.8 145 957.75 145C958.7 145 959.6 144.8 959.75 144.5C959.9 144.25 960.45 144 961 144C961.55 144 962.8 143.55 963.75 143C964.7 142.45 965.85 142 966.25 142C966.65 142 967 141.8 967 141.5C967 141.25 967.5 141 968.15 141C968.75 141 969.75 140.55 970.4 140C971 139.45 971.85 139 972.25 139C972.65 139 973 138.8 973 138.5C973 138.25 973.45 138 974 138C974.55 138 975 137.8 975 137.5C975 137.25 975.3 137 975.65 137C975.95 137 976.75 136.55 977.4 136C978 135.45 978.65 135 978.9 135C979.1 135.05 980.2 134.15 981.4 133C982.55 131.9 983.75 131 984 131C984.25 131 985.65 129.9 987 128.5C989.25 126.25 989.7 126 991.75 126C993 126 994 126.25 994 126.5C994 126.8 994.45 127 995 127C995.55 127 996 127.25 996 127.5C996 127.8 996.45 128 997 128C997.55 128 998.1 128.25 998.25 128.5C998.4 128.8 999.05 129 999.75 129C1000.45 129 1001 129.25 1001 129.5C1001 129.8 1001.65 130 1002.5 130C1003.35 130 1004 130.25 1004 130.5C1004 130.8 1005.35 131 1007 131C1008.65 131 1010 131.2 1010 131.5C1010 131.8 1012 132 1015 132C1018 132 1020 131.8 1020 131.5C1020 131.25 1021.25 131 1022.75 131C1024.25 131 1025.6 130.8 1025.75 130.5C1025.9 130.25 1026.65 130 1027.5 130C1028.35 130 1029 129.8 1029 129.5C1029 129.25 1029.4 129 1029.9 129C1030.35 129 1032.6 128.05 1034.9 126.9C1037.15 125.7 1039.05 124.6 1039 124.4C1039 124.15 1039.3 124 1039.65 124C1039.95 124.05 1041 123.35 1041.9 122.5C1042.75 121.7 1043.65 121 1043.9 121C1044.1 121 1045.3 120 1046.65 118.75C1047.95 117.5 1049 116.3 1049 116C1049 115.75 1049.65 114.85 1050.5 114C1051.35 113.2 1052 112.3 1052 112C1052 111.75 1052.75 110.65 1053.7 109.65L1055.4 107.75C1057.4 109.9 1058 110.75 1058 111C1058 111.3 1058.65 112.2 1059.5 113C1060.35 113.85 1061 114.75 1061 115C1061 115.3 1062.45 116.95 1064.25 118.75C1066.05 120.55 1067.7 122 1068 122C1068.3 122 1069.25 122.7 1070.15 123.5C1071 124.35 1072.05 125.05 1072.4 125C1072.7 125 1073 125.25 1073 125.5C1073 125.8 1073.45 126 1074 126C1074.55 126 1075 126.25 1075 126.5C1075 126.8 1075.45 127 1076 127C1076.55 127 1077 127.25 1077 127.5C1077 127.8 1077.45 128 1078 128C1078.55 128 1079 128.25 1079 128.5C1079 128.8 1079.45 129 1080 129C1080.55 129 1081.1 129.25 1081.25 129.5C1081.4 129.8 1082.3 130 1083.25 130C1084.2 130 1085 130.25 1085 130.5C1085 130.8 1086.15 131 1087.5 131C1088.9 131 1090 131.25 1090 131.5C1090 131.8 1092 132 1095 132C1098 132 1100 131.8 1100 131.5C1100 131.25 1101.25 131 1102.75 131C1104.25 131 1105.6 130.8 1105.75 130.5C1105.9 130.25 1106.65 130 1107.5 130C1108.35 130 1109 129.8 1109 129.5C1109 129.25 1109.65 129 1110.5 129C1111.35 129 1112 128.8 1112 128.5C1112 128.25 1112.45 128 1113 128C1113.55 128 1114.8 127.55 1115.75 127C1116.7 126.45 1118.4 126 1119.5 126C1121.3 126 1121.85 126.35 1125 129.5C1126.9 131.4 1128.7 133 1129 133C1129.3 133 1130.25 133.7 1131.15 134.5C1132 135.35 1133.05 136.05 1133.4 136C1133.7 136 1134 136.25 1134 136.5C1134 136.8 1134.45 137 1135 137C1135.55 137 1136 137.15 1136 137.4C1135.95 137.6 1137.85 138.7 1140.1 139.9C1142.4 141.05 1144.65 142 1145.15 142C1145.6 142 1146 142.25 1146 142.5C1146 142.8 1146.45 143 1147 143C1147.55 143 1148.1 143.25 1148.25 143.5C1148.4 143.8 1149.05 144 1149.75 144C1150.45 144 1151.1 144.25 1151.25 144.5C1151.4 144.8 1152.3 145 1153.25 145C1154.2 145 1155 145.25 1155 145.5C1155 145.8 1156.15 146 1157.5 146C1158.9 146 1160 146.25 1160 146.5C1160 146.8 1163.85 147 1170.5 147C1177.15 147 1181 146.8 1181 146.5C1181 146.25 1182.15 146 1183.5 146C1184.9 146 1186 145.8 1186 145.5C1186 145.25 1186.8 145 1187.75 145C1188.7 145 1189.6 144.8 1189.75 144.5C1189.9 144.25 1190.55 144 1191.25 144C1191.95 144 1192.6 143.8 1192.75 143.5C1192.9 143.25 1193.45 143 1194 143C1194.55 143 1195 142.8 1195 142.5C1195 142.25 1195.4 142 1195.9 142C1196.35 142 1198.6 141.05 1200.9 139.9C1203.15 138.7 1205.05 137.6 1205 137.4C1205 137.15 1205.4 137 1205.9 137C1206.35 137 1207.1 136.55 1207.5 136C1207.9 135.45 1208.6 135 1209 135C1209.4 135 1210.1 134.55 1210.5 134C1210.9 133.45 1211.55 133 1211.9 133C1212.2 133 1214.1 131.4 1216 129.5C1218 127.5 1219.95 126 1220.5 126C1221.1 126 1223.35 127.85 1226 130.5C1228.45 133 1230.7 135 1231 135C1231.3 135 1232.25 135.7 1233.15 136.5C1234 137.35 1235.05 138.05 1235.4 138C1235.7 138 1236 138.25 1236 138.5C1236 138.8 1236.45 139 1237 139C1237.55 139 1238 139.15 1238 139.4C1238 139.6 1238.9 140.25 1240 140.9C1241.1 141.5 1242.45 142 1243 142C1243.55 142 1244 142.25 1244 142.5C1244 142.8 1244.45 143 1245 143C1245.55 143 1246.1 143.25 1246.25 143.5C1246.4 143.8 1247.05 144 1247.75 144C1248.45 144 1249 144.25 1249 144.5C1249 144.8 1249.9 145 1251 145C1252.1 145 1253 145.25 1253 145.5C1253 145.8 1253.9 146 1255 146C1256.1 146 1257 146.25 1257 146.5C1257 146.8 1260.85 147 1267.5 147C1274.15 147 1278 146.8 1278 146.5C1278 146.25 1279 146 1280.25 146C1281.5 146 1282.6 145.8 1282.75 145.5C1282.9 145.25 1283.65 145 1284.5 145C1285.35 145 1286 144.8 1286 144.5C1286 144.25 1286.55 144 1287.25 144C1287.95 144 1288.6 143.8 1288.75 143.5C1288.9 143.25 1289.4 143 1289.9 143C1290.35 143 1292.15 142.3 1293.9 141.4C1295.6 140.5 1297 139.6 1297 139.4C1297 139.15 1297.45 139 1298 139C1298.55 139 1299 138.8 1299 138.5C1299 138.25 1299.3 138 1299.65 138C1299.95 138 1300.75 137.55 1301.4 137C1302 136.45 1302.65 136 1302.9 136C1303.1 136.05 1304.2 135.15 1305.4 134C1306.55 132.9 1307.8 132 1308.15 132C1308.45 132 1309.1 131.55 1309.5 131C1309.9 130.45 1310.55 130 1310.9 130C1311.2 130 1312.65 131.15 1314 132.5C1315.4 133.9 1316.7 135 1317 135C1317.3 135 1318.15 135.65 1319 136.5C1319.85 137.35 1320.7 138 1321 138C1321.3 138 1322 138.45 1322.65 139C1323.25 139.55 1324.05 140 1324.4 140C1324.7 140 1325 140.25 1325 140.5C1325 140.8 1325.45 141 1326 141C1326.55 141 1327 141.25 1327 141.5C1327 141.8 1327.45 142 1328 142C1328.55 142 1329 142.25 1329 142.5C1329 142.8 1329.45 143 1330 143C1330.55 143 1331 143.25 1331 143.5C1331 143.8 1331.45 144 1332 144C1332.55 144 1333.1 144.25 1333.25 144.5C1333.4 144.8 1334.3 145 1335.25 145C1336.2 145 1337 145.25 1337 145.5C1337 145.8 1337.9 146 1339 146C1340.1 146 1341 146.25 1341 146.5C1341 146.8 1344.35 147 1350 147C1355.65 147 1359 146.8 1359 146.5C1359 146.25 1360.15 146 1361.5 146C1362.9 146 1364 145.8 1364 145.5C1364 145.25 1364.65 145 1365.5 145C1366.35 145 1367 144.8 1367 144.5C1367 144.25 1367.65 144 1368.5 144C1369.35 144 1370 143.8 1370 143.5C1370 143.25 1370.45 143 1371 143C1371.67 143 1372 143.333 1372 144C1372 144.55 1372.2 145 1372.5 145C1372.8 145 1373 146.15 1373 147.5C1373 148.9 1373.2 150 1373.5 150C1373.8 150 1374 150.8 1374 151.75C1374 152.7 1374.2 153.6 1374.5 153.75C1374.8 153.9 1375 154.55 1375 155.25C1375 155.95 1375.2 156.6 1375.5 156.75C1375.8 156.9 1376 157.55 1376 158.25C1376 158.95 1376.2 159.6 1376.5 159.75C1376.8 159.9 1377 160.45 1377 161C1377 161.55 1377.2 162 1377.5 162C1377.8 162 1378 162.45 1378 163C1378 163.55 1378.2 164 1378.5 164C1378.8 164 1379 164.45 1379 165C1379 165.55 1379.2 166 1379.5 166C1379.8 166 1380 166.45 1380 167C1380 167.55 1380.2 168 1380.5 168C1380.8 168 1381 168.45 1381 169C1381 169.55 1381.2 170 1381.5 170C1381.8 170 1382 170.3 1382 170.65C1382 170.95 1382.45 171.75 1383 172.4C1383.55 173 1384 173.65 1384 173.9C1383.95 174.1 1384.65 175 1385.5 175.9C1386.3 176.75 1387 177.7 1387 178C1387 178.3 1388.7 180.2 1390.75 182.25C1392.8 184.3 1394.7 186 1395 186C1395.3 186 1396.45 186.9 1397.65 188C1398.8 189.15 1400.05 190.05 1400.4 190C1400.7 190 1401 190.15 1401 190.4C1401 190.6 1402.05 191.3 1403.35 192C1404.65 192.7 1405.8 193.4 1405.9 193.65C1405.95 193.85 1406.45 194 1407 194C1407.55 194 1408 194.2 1408 194.5C1408 194.8 1408.45 195 1409 195C1409.55 195 1410 195.2 1410 195.5C1410 195.8 1410.45 196 1411 196C1411.55 196 1412 196.2 1412 196.5C1412 196.8 1412.35 197 1412.75 197C1413.15 197 1414.3 197.45 1415.25 198C1416.2 198.55 1417.45 199 1418 199C1418.55 199 1419.1 199.2 1419.25 199.5C1419.4 199.8 1420.3 200 1421.25 200C1422.2 200 1423 200.2 1423 200.5C1423 200.8 1423.9 201 1425 201C1426.1 201 1427 201.2 1427 201.5C1427 201.8 1431.25 202 1438.75 202C1446.1 202 1450.6 201.8 1450.75 201.5C1450.9 201.2 1451.9 201 1453 201C1454.1 201 1455 200.8 1455 200.5C1455 200.2 1455.8 200 1456.75 200C1457.7 200 1458.6 199.8 1458.75 199.5C1458.9 199.2 1459.55 199 1460.25 199C1460.95 199 1461.6 198.8 1461.75 198.5C1461.9 198.2 1462.45 198 1463 198C1463.55 198 1464 197.8 1464 197.5C1464 197.2 1464.4 197 1464.9 197C1465.35 197 1467.15 196.3 1468.9 195.4C1470.6 194.5 1472 193.6 1472 193.4C1472 193.15 1472.45 193 1473 193C1473.55 193 1474 192.8 1474 192.5C1474 192.2 1474.3 192 1474.65 192C1474.95 192 1475.75 191.55 1476.4 191C1477 190.45 1477.65 190 1477.9 190C1478.1 190.05 1479.2 189.15 1480.4 188C1481.55 186.9 1482.65 186 1482.9 186C1483.1 186.05 1484.55 184.8 1486.15 183.25C1487.7 181.75 1489 180.3 1489 180C1489 179.7 1489.9 178.6 1491 177.5C1492.1 176.4 1493 175.3 1493 175C1493 174.7 1493.55 173.95 1494.25 173.25C1494.95 172.55 1495.9 171.1 1496.4 170C1496.85 168.9 1497.4 168 1497.65 168C1497.85 168 1498 167.55 1498 167C1498 166.45 1498.2 166 1498.5 166C1498.8 166 1499 165.55 1499 165C1499 164.45 1499.2 164 1499.5 164C1499.8 164 1500 163.55 1500 163C1500 162.45 1500.2 162 1500.5 162C1500.8 162 1501 161.55 1501 161C1501 160.45 1501.2 159.9 1501.5 159.75C1501.8 159.6 1502 158.95 1502 158.25C1502 157.55 1502.2 157 1502.5 157C1502.8 157 1503 156.35 1503 155.5C1503 154.65 1503.2 154 1503.5 154C1503.8 154 1504 153.1 1504 152C1504 150.9 1504.2 150 1504.5 150C1504.8 150 1505 149.1 1505 148C1505 146.9 1505.2 146 1505.5 146C1505.8 146 1506 145.55 1506 145C1506 144.333 1506.33 144 1507 144C1507.55 144 1508 144.25 1508 144.5C1508 144.8 1508.65 145 1509.5 145C1510.35 145 1511 145.25 1511 145.5C1511 145.8 1511.9 146 1513 146C1514.1 146 1515 146.25 1515 146.5C1515 146.8 1517.9 147 1522.75 147C1527.4 147 1530.6 146.8 1530.75 146.5C1530.9 146.25 1531.65 146 1532.5 146C1533.35 146 1534 145.8 1534 145.5C1534 145.25 1534.55 145 1535.25 145C1535.95 145 1536.6 144.8 1536.75 144.5C1536.9 144.25 1537.45 144 1538 144C1538.55 144 1539 143.8 1539 143.5C1539 143.25 1539.45 143 1540 143C1540.55 143 1541 142.85 1541 142.65C1541 142.4 1541.9 141.85 1543 141.4C1544.1 140.9 1545.55 139.95 1546.25 139.25C1546.9 138.55 1547.65 138 1547.95 138C1548.2 138 1549.45 137 1550.7 135.75C1551.95 134.5 1553 133.3 1553 133C1553 132.75 1553.7 131.75 1554.5 130.9C1555.35 130 1556.05 128.95 1556 128.65C1556 128.3 1556.2 128 1556.5 128C1556.8 128 1557 127.55 1557 127C1557 126.45 1557.2 126 1557.5 126C1557.8 126 1558 125.55 1558 125C1558 124.45 1558.2 124 1558.5 124C1558.8 124 1559 123.55 1559 123C1559 122.45 1559.2 121.9 1559.5 121.75C1559.8 121.6 1560 120.95 1560 120.25C1560 119.55 1560.2 118.9 1560.5 118.75C1560.8 118.6 1561 117.7 1561 116.75C1561 115.8 1561.2 115 1561.5 115C1561.8 115 1562 113.9 1562 112.5C1562 110.35 1562.15 110 1563 110C1563.55 110 1564 110.25 1564 110.5C1564 110.8 1566.5 111 1570.5 111C1574.5 111 1577 110.8 1577 110.5C1577 110.25 1577.8 110 1578.75 110C1579.7 110 1580.6 109.8 1580.75 109.5C1580.9 109.25 1581.45 109 1582 109C1582.55 109 1584.3 108.3 1585.9 107.45C1587.45 106.6 1588.85 105.75 1589 105.6C1589.15 105.4 1589.75 104.95 1590.4 104.65C1591.35 104.1 1591.65 104.15 1592.65 105C1593.25 105.55 1593.9 106 1594.15 106C1594.35 106 1595.4 106.9 1596.5 108C1597.6 109.1 1598.7 110 1599 110C1599.3 110 1600.25 110.7 1601.15 111.5C1602 112.35 1603.05 113.05 1603.4 113C1603.7 113 1604 113.25 1604 113.5C1604 113.8 1604.45 114 1605 114C1605.55 114 1606 114.25 1606 114.5C1606 114.8 1606.45 115 1607 115C1607.55 115 1608 115.25 1608 115.5C1608 115.8 1608.45 116 1609 116C1609.55 116 1610 116.25 1610 116.5C1610 116.8 1610.45 117 1611 117C1611.55 117 1612 117.25 1612 117.5C1612 117.8 1612.45 118 1613 118C1613.55 118 1614.1 118.25 1614.25 118.5C1614.4 118.8 1615.3 119 1616.25 119C1617.2 119 1618 119.25 1618 119.5C1618 119.8 1618.9 120 1620 120C1621.1 120 1622 120.25 1622 120.5C1622 120.8 1625.35 121 1631 121C1636.65 121 1640 120.8 1640 120.5C1640 120.25 1641.15 120 1642.5 120C1643.9 120 1645 119.8 1645 119.5C1645 119.25 1645.8 119 1646.75 119C1647.7 119 1648.6 118.8 1648.75 118.5C1648.9 118.25 1649.55 118 1650.25 118C1650.95 118 1651.6 117.8 1651.75 117.5C1651.9 117.25 1652.45 117 1653 117C1653.75 117 1654 117.35 1654 118.25C1654 118.95 1654.2 119.6 1654.5 119.75C1654.8 119.9 1655 120.45 1655 121C1655 121.55 1655.2 122 1655.5 122C1655.8 122 1656 122.45 1656 123C1656 123.55 1656.2 124 1656.5 124C1656.8 124 1657 124.5 1657 125.15C1657 125.75 1657.45 126.75 1658 127.4C1658.55 128 1659 128.85 1659 129.25C1659 129.65 1659.2 130 1659.5 130C1659.8 130 1660 130.45 1660 131C1660 131.55 1660.2 132 1660.5 132C1660.8 132 1661 132.3 1661 132.65C1661 132.95 1661.45 133.75 1662 134.4C1662.55 135 1663 135.65 1663 135.9C1662.95 136.1 1663.65 137 1664.5 137.9C1665.3 138.75 1666 139.75 1666 140C1666 140.3 1669.05 143.55 1672.75 147.25C1676.45 150.95 1679.7 154 1680 154C1680.3 154 1681.25 154.7 1682.15 155.5C1683 156.35 1684.05 157.05 1684.4 157C1684.7 157 1685 157.15 1685 157.4C1684.95 157.6 1688.2 159.4 1692.1 161.4C1696.05 163.35 1699.65 165 1700.15 165C1700.6 165 1701.1 165.2 1701.25 165.5C1701.4 165.8 1702.05 166 1702.75 166C1703.45 166 1704 166.2 1704 166.5C1704 166.8 1704.65 167 1705.5 167C1706.35 167 1707.1 167.2 1707.25 167.5C1707.4 167.8 1708.5 168 1709.75 168C1711 168 1712 168.2 1712 168.5C1712 168.8 1713.35 169 1715 169C1716.65 169 1718 169.2 1718 169.5C1718 169.8 1721.65 170 1728 170C1734.35 170 1738 169.8 1738 169.5C1738 169.2 1739.35 169 1741 169C1742.65 169 1744 168.8 1744 168.5C1744 168.2 1744.9 168 1746 168C1747.1 168 1748 167.8 1748 167.5C1748 167.2 1748.65 167 1749.5 167C1750.35 167 1751 166.8 1751 166.5C1751 166.2 1751.65 166 1752.5 166C1753.35 166 1754 165.8 1754 165.5C1754 165.2 1754.55 165 1755.25 165C1755.95 165 1756.6 164.8 1756.75 164.5C1756.9 164.2 1757.45 164 1758 164C1758.55 164 1759 163.8 1759 163.5C1759 163.2 1759.45 163 1760 163C1760.55 163 1761 162.8 1761 162.5C1761 162.2 1761.45 162 1762 162C1762.55 162 1763 161.8 1763 161.5C1763 161.2 1763.45 161 1764 161C1764.55 161 1765.05 160.85 1765.15 160.65C1765.2 160.4 1766.35 159.7 1767.65 159C1768.95 158.3 1770 157.6 1770 157.4C1770 157.15 1770.3 157 1770.65 157C1770.95 157.05 1772 156.35 1772.9 155.5C1773.75 154.7 1774.7 154 1775 154C1775.3 154 1778.3 151.2 1781.75 147.75C1785.2 144.3 1788 141.3 1788 141C1788 140.75 1788.65 139.85 1789.5 139C1790.35 138.15 1791 137.2 1791 136.9C1791 136.55 1791.45 135.9 1792 135.5C1792.55 135.1 1793 134.35 1793 133.9C1793 133.4 1793.35 133 1793.75 133C1794.15 133 1795.25 133.7 1796.15 134.5C1797 135.35 1797.95 136 1798.25 136C1798.55 136 1799.1 136.45 1799.5 137C1799.9 137.55 1800.65 138 1801.15 138C1801.6 138 1802 138.15 1802 138.4C1801.95 138.6 1804.3 139.95 1807.1 141.4C1809.95 142.8 1812.65 144 1813.15 144C1813.6 144 1814 144.25 1814 144.5C1814 144.8 1814.65 145 1815.5 145C1816.35 145 1817 145.25 1817 145.5C1817 145.8 1817.9 146 1819 146C1820.1 146 1821 146.25 1821 146.5C1821 146.8 1824.5 147 1830.5 147C1836.5 147 1840 146.8 1840 146.5C1840 146.25 1840.9 146 1842 146C1843.1 146 1844 145.8 1844 145.5C1844 145.25 1844.8 145 1845.75 145C1846.7 145 1847.6 144.8 1847.75 144.5C1847.9 144.25 1848.45 144 1849 144C1849.55 144 1850.8 143.55 1851.75 143C1852.7 142.45 1853.85 142 1854.25 142C1854.65 142 1855 141.8 1855 141.5C1855 141.25 1855.45 141 1856 141C1856.55 141 1857 140.8 1857 140.5C1857 140.25 1857.45 140 1858 140C1858.55 140 1859 139.8 1859 139.5C1859 139.25 1859.15 139 1859.4 139C1859.6 139 1860.5 140.6 1861.4 142.5C1862.25 144.45 1863.2 146 1863.5 146C1863.8 146 1864 146.45 1864 147C1864 147.55 1864.2 148 1864.5 148C1864.8 148 1865 148.4 1865 148.9C1865 149.35 1865.45 150.1 1866 150.5C1866.55 150.9 1867 151.6 1867 152C1867 152.4 1867.45 153.1 1868 153.5C1868.55 153.9 1869 154.55 1869 154.9C1869 155.2 1869.65 156.15 1870.5 157C1871.35 157.85 1872 158.7 1872 159C1872 159.3 1874.6 162.1 1877.75 165.25C1880.9 168.4 1883.7 171 1884 171C1884.3 171 1885.25 171.7 1886.15 172.5C1887 173.35 1888.05 174.05 1888.4 174C1888.7 174 1889 174.15 1889 174.4C1888.95 174.6 1891.3 175.95 1894.1 177.4C1896.95 178.8 1899.65 180 1900.15 180C1900.6 180 1901.1 180.2 1901.25 180.5C1901.4 180.8 1902.3 181 1903.25 181C1904.2 181 1905 181.2 1905 181.5C1905 181.8 1907.7 181.95 1912.4 181.9L1919.75 181.75L1920 90V0Z" fill="white"/>
</svg>
