<svg width="47" height="60" viewBox="0 0 47 60" fill="none" xmlns="http://www.w3.org/2000/svg">
<path d="M6.49031 0.0100098H37.6903C38.0503 0.0100098 38.3503 0.19001 38.5903 0.37001L46.6303 8.41001C46.8703 8.65001 46.9903 8.95001 46.9903 9.31001V53.59C46.9903 55.33 46.2703 56.95 45.1303 58.15C43.9903 59.29 42.3703 60.01 40.5703 60.01H6.49031C4.75031 60.01 3.13031 59.29 1.93031 58.15C0.730313 56.95 0.0703125 55.39 0.0703125 53.59V6.43001C0.0703125 4.69001 0.790313 3.07001 1.93031 1.87001C3.07031 0.67001 4.69031 0.0100098 6.49031 0.0100098ZM7.63031 53.89C6.91031 53.89 6.37031 53.29 6.37031 52.63C6.37031 51.91 6.97031 51.37 7.63031 51.37H10.5703C11.2903 51.37 11.8303 51.97 11.8303 52.63C11.8303 53.35 11.2303 53.89 10.5703 53.89H7.63031ZM14.3503 53.89C13.6303 53.89 13.0903 53.29 13.0903 52.63C13.0903 51.91 13.6903 51.37 14.3503 51.37H39.4903C40.2103 51.37 40.7503 51.97 40.7503 52.63C40.7503 53.35 40.1503 53.89 39.4903 53.89H14.3503ZM14.3503 29.77C13.6303 29.77 13.0903 29.17 13.0903 28.51C13.0903 27.79 13.6903 27.25 14.3503 27.25H39.4903C40.2103 27.25 40.7503 27.85 40.7503 28.51C40.7503 29.23 40.1503 29.77 39.4903 29.77H14.3503ZM14.3503 35.83C13.6303 35.83 13.0903 35.23 13.0903 34.57C13.0903 33.91 13.6903 33.31 14.3503 33.31H39.4903C40.2103 33.31 40.7503 33.91 40.7503 34.57C40.7503 35.23 40.1503 35.83 39.4903 35.83H14.3503ZM14.3503 41.83C13.6303 41.83 13.0903 41.23 13.0903 40.57C13.0903 39.85 13.6903 39.31 14.3503 39.31H39.4903C40.2103 39.31 40.7503 39.91 40.7503 40.57C40.7503 41.29 40.1503 41.83 39.4903 41.83H14.3503ZM14.3503 47.83C13.6303 47.83 13.0903 47.23 13.0903 46.57C13.0903 45.91 13.6903 45.31 14.3503 45.31H39.4903C40.2103 45.31 40.7503 45.91 40.7503 46.57C40.7503 47.23 40.1503 47.83 39.4903 47.83H14.3503ZM7.63031 29.77C6.91031 29.77 6.37031 29.17 6.37031 28.51C6.37031 27.79 6.97031 27.25 7.63031 27.25H10.5703C11.2903 27.25 11.8303 27.85 11.8303 28.51C11.8303 29.23 11.2303 29.77 10.5703 29.77H7.63031ZM7.63031 35.83C6.91031 35.83 6.37031 35.23 6.37031 34.57C6.37031 33.85 6.97031 33.31 7.63031 33.31H10.5703C11.2903 33.31 11.8303 33.91 11.8303 34.57C11.8303 35.29 11.2303 35.83 10.5703 35.83H7.63031ZM7.63031 41.83C6.91031 41.83 6.37031 41.23 6.37031 40.57C6.37031 39.85 6.97031 39.31 7.63031 39.31H10.5703C11.2903 39.31 11.8303 39.91 11.8303 40.57C11.8303 41.29 11.2303 41.83 10.5703 41.83H7.63031ZM7.63031 47.89C6.91031 47.89 6.37031 47.29 6.37031 46.63C6.37031 45.97 6.97031 45.37 7.63031 45.37H10.5703C11.2903 45.37 11.8303 45.97 11.8303 46.63C11.8303 47.29 11.2303 47.89 10.5703 47.89H7.63031ZM22.7503 12.79C22.0303 12.79 21.4903 12.19 21.4903 11.53C21.4903 10.81 22.0903 10.27 22.7503 10.27H30.1303C30.8503 10.27 31.3903 10.87 31.3903 11.53C31.3903 12.25 30.7903 12.79 30.1303 12.79H22.7503ZM22.7503 22.75C22.0303 22.75 21.4903 22.15 21.4903 21.49C21.4903 20.83 22.0903 20.23 22.7503 20.23H39.4903C40.2103 20.23 40.7503 20.83 40.7503 21.49C40.7503 22.15 40.1503 22.75 39.4903 22.75H22.7503ZM22.7503 17.77C22.0303 17.77 21.4903 17.17 21.4903 16.51C21.4903 15.79 22.0903 15.25 22.7503 15.25H39.4903C40.2103 15.25 40.7503 15.85 40.7503 16.51C40.7503 17.23 40.1503 17.77 39.4903 17.77H22.7503ZM7.63031 6.13001H17.5303C18.2503 6.13001 18.7903 6.73001 18.7903 7.39001V21.43C18.7903 22.15 18.1903 22.69 17.5303 22.69H7.63031C6.91031 22.69 6.37031 22.09 6.37031 21.43V7.39001C6.31031 6.67001 6.91031 6.13001 7.63031 6.13001ZM16.2103 8.71001H8.89031V20.17H16.2103V8.71001ZM36.4303 2.59001H6.49031C5.41031 2.59001 4.45031 3.01001 3.79031 3.73001C3.13031 4.45001 2.65031 5.41001 2.65031 6.43001V53.59C2.65031 54.67 3.07031 55.63 3.79031 56.29C4.51031 57.01 5.47031 57.43 6.49031 57.43H40.5703C41.6503 57.43 42.6103 57.01 43.2703 56.29C43.9903 55.57 44.4103 54.61 44.4103 53.59V10.57H37.6903C36.9703 10.57 36.4303 9.97001 36.4303 9.31001V2.59001ZM42.6103 7.99001L39.0103 4.39001V7.99001H42.6103Z" fill="#FC800A"/>
</svg>
