<svg width="30" height="18" viewBox="0 0 30 18" fill="none" xmlns="http://www.w3.org/2000/svg">
<path d="M28.6875 4.21875C29.5625 4.5 30 5.09375 30 6C30 6.90625 29.5625 7.5 28.6875 7.78125L23.2969 9.51562L24 15C24 15.8438 23.125 16.5547 21.375 17.1328C19.625 17.7109 17.5 18 15 18C12.5 18 10.375 17.7109 8.625 17.1328C6.875 16.5547 6 15.8438 6 15L6.70312 9.51562L4.17188 8.71875C4.04688 8.90625 3.95312 9.10938 3.89062 9.32812C4.29688 9.60938 4.5 10 4.5 10.5C4.5 11.125 4.21875 11.5781 3.65625 11.8594L4.5 17.1094C4.53125 17.3281 4.49219 17.5312 4.38281 17.7188C4.27344 17.9062 4.125 18 3.9375 18H2.0625C1.875 18 1.72656 17.9062 1.61719 17.7188C1.50781 17.5312 1.46875 17.3281 1.5 17.1094L2.34375 11.8594C1.78125 11.5781 1.5 11.125 1.5 10.5C1.5 9.875 1.78125 9.42188 2.34375 9.14062C2.4375 8.82812 2.5625 8.53125 2.71875 8.25L1.3125 7.78125C0.4375 7.5 0 6.90625 0 6C0 5.09375 0.4375 4.5 1.3125 4.21875L13.7344 0.1875C14.5781 -0.0625 15.4219 -0.0625 16.2656 0.1875L28.6875 4.21875ZM22.4531 14.9062L21.8438 9.98438L16.2656 11.8125C15.4219 12.0625 14.5781 12.0625 13.7344 11.8125L8.15625 9.98438L7.54688 14.9062C7.85938 15.25 8.6875 15.6016 10.0312 15.9609C11.375 16.3203 13.0312 16.5 15 16.5C16.9688 16.5 18.625 16.3203 19.9688 15.9609C21.3125 15.6016 22.1406 15.25 22.4531 14.9062ZM28.2188 6.375C28.4062 6.3125 28.5 6.1875 28.5 6C28.5 5.8125 28.4062 5.6875 28.2188 5.625L15.7969 1.64062C15.2656 1.45312 14.7344 1.45312 14.2031 1.64062L1.78125 5.625C1.59375 5.6875 1.5 5.8125 1.5 6C1.5 6.1875 1.59375 6.3125 1.78125 6.375L3.75 6.98438C4.25 6.64062 4.76562 6.40625 5.29688 6.28125L14.8594 4.5C14.9844 4.46875 15.1094 4.47656 15.2344 4.52344C15.3594 4.57031 15.4688 4.64844 15.5625 4.75781C15.6562 4.86719 15.7188 4.98438 15.75 5.10938C15.7812 5.32812 15.7344 5.52344 15.6094 5.69531C15.4844 5.86719 15.3281 5.96875 15.1406 6L5.95312 7.6875L14.2031 10.3594C14.7344 10.5469 15.2656 10.5469 15.7969 10.3594L28.2188 6.375Z" fill="black"/>
</svg>
