<svg width="61" height="61" viewBox="0 0 61 61" fill="none" xmlns="http://www.w3.org/2000/svg">
<path d="M9.85938 12.09L30.6194 3.03003L51.4394 12.09" stroke="white" stroke-width="1.8" stroke-linecap="round" stroke-linejoin="round"/>
<path d="M20.9008 16.0501L9.80078 12.0901" stroke="white" stroke-width="1.8" stroke-linecap="round" stroke-linejoin="round"/>
<path d="M51.4404 12.0901L40.4004 16.0501" stroke="white" stroke-width="1.8" stroke-linecap="round" stroke-linejoin="round"/>
<path d="M25.2791 39.51L23.1191 44.25" stroke="white" stroke-width="1.8" stroke-linecap="round" stroke-linejoin="round"/>
<path d="M30.4991 57.99L23.1191 44.25" stroke="white" stroke-width="1.8" stroke-linecap="round" stroke-linejoin="round"/>
<path d="M23.1198 44.25L11.0598 46.23C8.89984 46.59 7.21984 48.39 7.03984 50.55L5.83984 57.99" stroke="white" stroke-width="1.8" stroke-linecap="round" stroke-linejoin="round"/>
<path d="M37.8807 44.25L35.7207 39.51" stroke="white" stroke-width="1.8" stroke-linecap="round" stroke-linejoin="round"/>
<path d="M30.5 57.99L37.88 44.25" stroke="white" stroke-width="1.8" stroke-linecap="round" stroke-linejoin="round"/>
<path d="M39.7402 17.67C42.0802 20.13 43.5202 23.49 43.5202 27.21V44.97" stroke="white" stroke-width="1.8" stroke-linecap="round" stroke-linejoin="round"/>
<path d="M17.4805 45.03V27.21C17.4805 23.31 19.0405 19.83 21.5605 17.37" stroke="white" stroke-width="1.8" stroke-linecap="round" stroke-linejoin="round"/>
<path d="M39.3197 27.9301C39.3197 35.8501 35.3597 42.2701 30.4997 42.2701C25.6397 42.2701 21.6797 35.8501 21.6797 27.9301" stroke="white" stroke-width="1.8" stroke-linecap="round" stroke-linejoin="round"/>
<path d="M39.3208 27.93C38.1808 28.23 36.9808 28.41 35.7808 28.41C30.7408 28.41 26.4808 25.77 24.8008 21.99" stroke="white" stroke-width="1.8" stroke-linecap="round" stroke-linejoin="round"/>
<path d="M37.8789 44.25L49.9389 46.23C52.0989 46.59 53.7789 48.39 53.9589 50.55L55.0989 57.99" stroke="white" stroke-width="1.8" stroke-linecap="round" stroke-linejoin="round"/>
<path d="M30.5005 15.3901C34.1005 15.3901 37.3405 16.8301 39.7405 19.2301V12.9301C37.3405 10.5901 34.1005 9.09009 30.5005 9.09009C26.9005 9.09009 23.9005 10.4701 21.5605 12.6301V18.9301C23.9005 16.7101 27.0205 15.3901 30.5005 15.3901Z" stroke="white" stroke-width="1.8" stroke-linecap="round" stroke-linejoin="round"/>
<path d="M51.4395 12.0901V22.4701" stroke="white" stroke-width="1.8" stroke-linecap="round" stroke-linejoin="round"/>
<path d="M51.4402 22.41C49.9402 22.41 48.7402 23.61 48.7402 25.11C48.7402 26.61 49.9402 27.81 51.4402 27.81C52.9402 27.81 54.1402 26.61 54.1402 25.11" stroke="white" stroke-width="1.8" stroke-linecap="round" stroke-linejoin="round"/>
</svg>
