<svg width="57" height="59" viewBox="0 0 57 59" fill="none" xmlns="http://www.w3.org/2000/svg">
<path d="M12.9284 26.2701H7.52836C7.04836 26.2701 6.56836 25.7901 6.56836 25.3101C6.56836 24.8301 7.04836 24.3501 7.52836 24.3501H12.9284C13.4084 24.3501 13.8884 24.8301 13.8884 25.3101C13.8884 25.7901 13.5284 26.2701 12.9284 26.2701Z" fill="white"/>
<path d="M42.9284 26.2701H37.5284C37.0484 26.2701 36.5684 25.7901 36.5684 25.3101C36.5684 24.8301 37.0484 24.3501 37.5284 24.3501H42.9284C43.4084 24.3501 43.8884 24.8301 43.8884 25.3101C43.8884 25.7901 43.4084 26.2701 42.9284 26.2701Z" fill="white"/>
<path d="M12.6892 38.7501C12.4492 38.7501 12.2092 38.6301 11.9692 38.5101C11.6092 38.1501 11.6092 37.5501 11.9692 37.1901L15.8092 33.3501C16.1692 32.9901 16.7692 32.9901 17.1292 33.3501C17.4892 33.7101 17.4892 34.3101 17.1292 34.6701L13.2892 38.5101C13.1692 38.6301 12.9292 38.7501 12.6892 38.7501Z" fill="white"/>
<path d="M33.9275 17.5101C33.6875 17.5101 33.4475 17.3901 33.2075 17.2701C32.8475 16.9101 32.8475 16.3101 33.2075 15.9501L37.0475 12.1101C37.4075 11.7501 38.0075 11.7501 38.3675 12.1101C38.7275 12.4701 38.7275 13.0701 38.3675 13.4301L34.5275 17.2701C34.5275 17.5101 34.1675 17.5101 33.9275 17.5101Z" fill="white"/>
<path d="M25.2881 13.9101C24.8081 13.9101 24.3281 13.4301 24.3281 12.9501V7.55009C24.3281 7.07009 24.8081 6.59009 25.2881 6.59009C25.7681 6.59009 26.2481 7.07009 26.2481 7.55009V12.9501C26.2481 13.5501 25.7681 13.9101 25.2881 13.9101Z" fill="white"/>
<path d="M37.8886 38.7501C37.6486 38.7501 37.4086 38.6301 37.1686 38.5101L33.3286 34.6701C32.9686 34.3101 32.9686 33.7101 33.3286 33.3501C33.6886 32.9901 34.2886 32.9901 34.6486 33.3501L38.4886 37.1901C38.8486 37.5501 38.8486 38.1501 38.4886 38.5101C38.3686 38.6301 38.1286 38.7501 37.8886 38.7501Z" fill="white"/>
<path d="M16.5292 17.5101C16.2892 17.5101 16.0492 17.3901 15.8092 17.2701L11.9692 13.4301C11.6092 13.0701 11.6092 12.4701 11.9692 12.1101C12.3292 11.7501 12.9292 11.7501 13.2892 12.1101L17.1292 15.9501C17.4892 16.3101 17.4892 16.9101 17.1292 17.2701C17.1292 17.5101 16.8892 17.5101 16.5292 17.5101Z" fill="white"/>
<path d="M28.8874 41.7501H21.5674C21.0874 41.7501 20.6074 41.2701 20.6074 40.7901C20.6074 40.3101 21.0874 39.8301 21.5674 39.8301H28.8874C29.3674 39.8301 29.8474 40.3101 29.8474 40.7901C29.8474 41.2701 29.4874 41.7501 28.8874 41.7501Z" fill="white"/>
<path d="M29.0075 38.5101C28.5275 38.5101 28.0475 38.0301 28.0475 37.5501V36.4701C28.0475 34.0701 29.2475 32.5101 30.4475 30.9501C31.7675 29.3901 32.9675 27.8301 32.9675 25.1901C32.9675 20.9901 29.4875 17.5101 25.2875 17.5101C21.0875 17.5101 17.6075 20.9901 17.6075 25.1901C17.6075 27.8301 18.8075 29.2701 20.1275 30.9501C21.3275 32.5101 22.5275 34.0701 22.5275 36.4701V37.5501C22.5275 38.0301 22.0475 38.5101 21.5675 38.5101C21.0875 38.5101 20.6075 38.0301 20.6075 37.5501V36.4701C20.6075 34.6701 19.6475 33.5901 18.5675 32.1501C17.2475 30.4701 15.6875 28.5501 15.6875 25.1901C15.6875 19.9101 20.0075 15.5901 25.2875 15.5901C30.5675 15.5901 34.8875 19.9101 34.8875 25.1901C34.8875 28.5501 33.3275 30.4701 32.0075 32.1501C30.9275 33.4701 29.9675 34.6701 29.9675 36.4701V37.5501C29.9675 38.0301 29.4875 38.5101 29.0075 38.5101Z" fill="white"/>
<path d="M27.2093 45.1101H23.4893C23.0093 45.1101 22.5293 44.6301 22.5293 44.1501C22.5293 43.6701 23.0093 43.1901 23.4893 43.1901H27.2093C27.6893 43.1901 28.1693 43.6701 28.1693 44.1501C28.1693 44.6301 27.6893 45.1101 27.2093 45.1101Z" fill="white"/>
<path d="M42.9293 58.5501H32.7293C28.1693 58.5501 24.3293 54.8301 24.3293 50.1501V49.0701C24.3293 48.5901 24.8093 48.1101 25.2893 48.1101C25.7693 48.1101 26.2493 48.5901 26.2493 49.0701V50.1501C26.2493 53.7501 29.1293 56.6301 32.7293 56.6301H42.9293C45.0893 56.6301 46.8893 55.0701 47.0093 52.9101L47.8493 44.8701C47.9693 43.6701 48.9293 42.5901 50.1293 42.3501L53.4893 41.6301C53.7293 41.5101 53.9693 41.3901 54.0893 41.1501C54.2093 40.9101 54.2093 40.5501 54.0893 40.3101L48.6893 29.2701C48.3293 28.5501 48.0893 27.5901 48.2093 26.7501C48.2093 26.2701 48.2093 25.7901 48.2093 25.3101C48.2093 18.8301 45.4493 12.5901 40.6493 8.27005C35.7293 3.83005 29.3693 1.79005 22.7693 2.51005C12.2093 3.71005 3.68931 12.2301 2.60931 22.7901C1.76931 29.2701 3.80931 35.5101 8.12931 40.4301C9.56931 42.1101 10.4093 44.1501 10.4093 46.3101V57.7101C10.4093 58.1901 9.92931 58.6701 9.44931 58.6701C8.96931 58.6701 8.48931 58.1901 8.48931 57.7101V46.3101C8.48931 44.6301 7.88931 43.0701 6.68931 41.7501C2.00931 36.4701 -0.150695 29.7501 0.569305 22.7901C1.76931 11.1501 11.0093 1.91005 22.5293 0.590054C29.7293 -0.249946 36.5693 2.03005 41.9693 6.83005C47.2493 11.5101 50.2493 18.2301 50.2493 25.3101C50.2493 25.7901 50.2493 26.3901 50.2493 26.8701C50.2493 27.4701 50.3693 27.9501 50.4893 28.4301L55.8893 39.4701C56.2493 40.3101 56.2493 41.1501 55.8893 41.9901C55.5293 42.8301 54.8093 43.3101 53.9693 43.5501L50.6093 44.2701C50.2493 44.3901 49.8893 44.7501 49.8893 45.1101L49.0493 53.1501C48.5693 56.1501 46.0493 58.5501 42.9293 58.5501Z" fill="white"/>
</svg>
