<svg width="61" height="61" viewBox="0 0 61 61" fill="none" xmlns="http://www.w3.org/2000/svg">
<path d="M33.1098 34.11C30.4698 34.11 28.0098 34.47 26.0898 35.01" stroke="white" stroke-width="1.8" stroke-linecap="round" stroke-linejoin="round"/>
<path d="M33.11 42.27V53.37C33.11 56.01 30.95 58.17 28.31 58.17H7.55C4.91 58.17 2.75 56.01 2.75 53.37V8.78999C2.75 6.14999 4.91 3.98999 7.55 3.98999H28.31C30.95 3.98999 33.11 6.14999 33.11 8.78999V17.91" stroke="white" stroke-width="1.8" stroke-linecap="round" stroke-linejoin="round"/>
<path d="M30.4706 49.35H5.39062" stroke="white" stroke-width="1.8" stroke-linejoin="round"/>
<path d="M5.39062 11.01H30.4706" stroke="white" stroke-width="1.8" stroke-linejoin="round"/>
<path d="M15.2891 53.79H20.5691" stroke="white" stroke-width="1.8" stroke-linecap="round" stroke-linejoin="round"/>
<path d="M33.1098 34.11C30.4698 34.11 28.0098 34.47 26.0898 35.01" stroke="white" stroke-width="1.8" stroke-linecap="round" stroke-linejoin="round"/>
<path d="M44.5705 33.15L54.5305 28.77C54.8305 28.65 55.0105 28.35 55.0105 28.05V27.99C55.0105 27.69 54.8305 27.33 54.5305 27.21L33.2305 17.85L33.1105 17.91L11.9305 27.21C11.2705 27.51 11.2705 28.53 11.9305 28.83L21.8905 33.21" stroke="white" stroke-width="1.8" stroke-linecap="round" stroke-linejoin="round"/>
<path d="M21.8301 38.19V30.09C21.8301 27.87 26.9301 26.01 33.2301 26.01C39.5301 26.01 44.6301 27.81 44.6301 30.09V38.19" stroke="white" stroke-width="1.8" stroke-linecap="round" stroke-linejoin="round"/>
<path d="M33.1101 34.11H33.2301C35.9301 34.11 38.3901 34.47 40.3701 35.01C42.9501 35.73 44.6301 36.87 44.6301 38.19C44.6301 40.41 39.5301 42.27 33.2301 42.27H33.1101C26.8701 42.27 21.8301 40.47 21.8301 38.19C21.8301 36.93 23.5101 35.79 26.0901 35.01" stroke="white" stroke-width="1.8" stroke-linecap="round" stroke-linejoin="round"/>
<path d="M55.0098 27.99V41.49" stroke="white" stroke-width="1.8" stroke-linecap="round" stroke-linejoin="round"/>
<path d="M55.0098 41.55C53.3298 41.55 52.0098 42.93 52.0098 44.61C52.0098 46.29 53.3898 47.67 55.0098 47.67C56.6898 47.67 58.0098 46.29 58.0098 44.61" stroke="white" stroke-width="1.8" stroke-linecap="round" stroke-linejoin="round"/>
</svg>
