<svg width="61" height="61" viewBox="0 0 61 61" fill="none" xmlns="http://www.w3.org/2000/svg">
<path d="M21.1703 22.05L2.45031 15.03C1.61031 14.73 1.61031 13.59 2.45031 13.29L28.2503 3.63C28.7303 3.45 29.2703 3.45 29.8103 3.63L55.5503 13.29C56.3903 13.59 56.3903 14.73 55.5503 15.03L36.7103 22.11" stroke="white" stroke-width="1.8" stroke-linecap="round" stroke-linejoin="round"/>
<path d="M17.2109 20.25V15.99C17.2109 13.65 22.4909 11.79 28.9709 11.79C35.4509 11.79 40.7309 13.65 40.7309 15.99V20.25" stroke="white" stroke-width="1.8" stroke-linecap="round" stroke-linejoin="round"/>
<path d="M56.1504 14.25V27.15" stroke="white" stroke-width="1.8" stroke-linecap="round" stroke-linejoin="round"/>
<path d="M56.1501 27.15C54.5901 27.15 53.3301 28.41 53.3301 29.97C53.3301 31.53 54.5901 32.79 56.1501 32.79C57.7101 32.79 58.9701 31.53 58.9701 29.97" stroke="white" stroke-width="1.8" stroke-linecap="round" stroke-linejoin="round"/>
<path d="M47.45 38.97C47.45 49.23 39.11 57.57 28.85 57.57C18.59 57.57 10.25 49.23 10.25 38.97C10.25 28.71 18.59 20.37 28.85 20.37C39.17 20.37 47.45 28.71 47.45 38.97Z" stroke="white" stroke-width="1.8" stroke-linecap="round" stroke-linejoin="round"/>
<path d="M35.8098 38.97C35.8098 49.23 32.6898 57.57 28.9098 57.57C25.0698 57.57 22.0098 49.23 22.0098 38.97C22.0098 28.71 25.1298 20.37 28.9098 20.37C32.6898 20.37 35.8098 28.71 35.8098 38.97Z" stroke="white" stroke-width="1.8" stroke-linecap="round" stroke-linejoin="round"/>
<path d="M11.3906 45.15H46.3106" stroke="white" stroke-width="1.8" stroke-linecap="round" stroke-linejoin="round"/>
<path d="M11.3906 32.79H46.3106" stroke="white" stroke-width="1.8" stroke-linecap="round" stroke-linejoin="round"/>
</svg>
