<svg width="17" height="7" viewBox="0 0 17 7" fill="none" xmlns="http://www.w3.org/2000/svg">
<path d="M5.59375 3.84686C5.59375 4.27395 5.67708 4.67238 5.84375 5.04218C6.01042 5.41197 6.23958 5.73749 6.53125 6.01874C6.82292 6.29999 7.16406 6.51874 7.55469 6.67499C7.94531 6.83124 8.36458 6.90936 8.8125 6.90936C9.26042 6.90936 9.67969 6.83124 10.0703 6.67499C10.4609 6.51874 10.8021 6.29999 11.0938 6.01874C11.3854 5.73749 11.6146 5.41197 11.7812 5.04218C11.9479 4.67238 12.0312 4.27395 12.0312 3.84686C12.0312 3.48228 11.9635 3.13332 11.8281 2.79999C11.6927 2.46665 11.5 2.16457 11.25 1.89374C12.0521 2.08124 12.7943 2.32603 13.4766 2.62811C14.1589 2.9302 14.7448 3.22707 15.2344 3.51874C15.724 3.8104 16.1094 4.0604 16.3906 4.26874C16.6719 4.47707 16.8125 4.58124 16.8125 4.58124V3.15936C16.8125 3.15936 16.6016 3.00572 16.1797 2.69843C15.7578 2.39113 15.1875 2.04999 14.4688 1.67499C13.75 1.29999 12.9062 0.958842 11.9375 0.65155C10.9688 0.344259 9.94271 0.190613 8.85938 0.190613C7.77604 0.190613 6.7474 0.344259 5.77344 0.65155C4.79948 0.958842 3.94531 1.29999 3.21094 1.67499C2.47656 2.04999 1.89323 2.39113 1.46094 2.69843C1.02865 3.00572 0.8125 3.15936 0.8125 3.15936V4.58124C0.8125 4.58124 0.950521 4.47968 1.22656 4.27655C1.5026 4.07343 1.88802 3.82863 2.38281 3.54218C2.8776 3.25572 3.46094 2.96145 4.13281 2.65936C4.80469 2.35728 5.53646 2.10728 6.32812 1.90936C6.09896 2.1802 5.91927 2.47968 5.78906 2.8078C5.65885 3.13593 5.59375 3.48228 5.59375 3.84686Z" fill="#020202"/>
</svg>
