<svg width="52" height="60" viewBox="0 0 52 60" fill="none" xmlns="http://www.w3.org/2000/svg">
<path d="M26.0666 6.55001C23.9066 6.49001 21.8066 7.33001 20.2466 8.77001C18.6866 10.21 17.7866 12.31 17.7266 14.47C17.7266 16.57 18.5066 18.61 19.8866 20.17C21.0266 21.67 21.8066 21.85 22.2866 24.07" stroke="#FC800A" stroke-width="2.4" stroke-linecap="round" stroke-linejoin="round"/>
<path d="M26.0625 6.55001C28.2225 6.49001 30.3225 7.33001 31.8825 8.77001C33.4425 10.27 34.3425 12.31 34.4025 14.47C34.4025 16.57 33.6225 18.61 32.2425 20.17C31.1025 21.67 30.1425 21.85 29.6625 24.07" stroke="#FC800A" stroke-width="2.4" stroke-linecap="round" stroke-linejoin="round"/>
<path d="M29.7263 24.13H22.4062" stroke="#FC800A" stroke-width="2.4" stroke-linecap="round" stroke-linejoin="round"/>
<path d="M26.0625 29.7101H27.9825L29.6625 26.9501V24.1901" stroke="#FC800A" stroke-width="2.4" stroke-linecap="round" stroke-linejoin="round"/>
<path d="M28.6406 10.9301C29.1806 11.2301 29.6606 11.6501 30.0806 12.1901C30.4406 12.6701 30.7406 13.2701 30.8606 13.9301" stroke="#FC800A" stroke-width="2.4" stroke-linecap="round" stroke-linejoin="round"/>
<path d="M22.2812 24.13V26.89L24.1413 29.65H26.0013" stroke="#FC800A" stroke-width="2.4" stroke-linecap="round" stroke-linejoin="round"/>
<path d="M26 40.9301V58.5101" stroke="#FC800A" stroke-width="2.4" stroke-linecap="round" stroke-linejoin="round"/>
<path d="M26.0034 40.93L9.02344 32.47" stroke="#FC800A" stroke-width="2.4" stroke-linecap="round" stroke-linejoin="round"/>
<path d="M26.0034 40.93L20.0034 49.39L3.02344 40.93L9.02344 32.47" stroke="#FC800A" stroke-width="2.4" stroke-linecap="round" stroke-linejoin="round"/>
<path d="M26 40.93L31.88 49.45L48.86 40.99L42.98 32.47" stroke="#FC800A" stroke-width="2.4" stroke-linecap="round" stroke-linejoin="round"/>
<path d="M26 40.93L42.98 32.47" stroke="#FC800A" stroke-width="2.4" stroke-linecap="round" stroke-linejoin="round"/>
<path d="M26.0034 58.51L9.02344 50.05V44.47" stroke="#FC800A" stroke-width="2.4" stroke-linecap="round" stroke-linejoin="round"/>
<path d="M26 58.51L42.98 50.05V44.47" stroke="#FC800A" stroke-width="2.4" stroke-linecap="round" stroke-linejoin="round"/>
<path d="M26.3672 1.51001V2.59001" stroke="#FC800A" stroke-width="2.4" stroke-linecap="round" stroke-linejoin="round"/>
<path d="M16.1641 5.05005L17.4841 6.37005" stroke="#FC800A" stroke-width="2.4" stroke-linecap="round" stroke-linejoin="round"/>
<path d="M12.4453 15.4301H13.5253" stroke="#FC800A" stroke-width="2.4" stroke-linecap="round" stroke-linejoin="round"/>
<path d="M16.1641 24.67L17.4841 23.35" stroke="#FC800A" stroke-width="2.4" stroke-linecap="round" stroke-linejoin="round"/>
<path d="M35.8434 24.67L34.5234 23.41" stroke="#FC800A" stroke-width="2.4" stroke-linecap="round" stroke-linejoin="round"/>
<path d="M40.285 15.4301H38.125" stroke="#FC800A" stroke-width="2.4" stroke-linecap="round" stroke-linejoin="round"/>
<path d="M35.8434 5.05005L34.5234 6.37005" stroke="#FC800A" stroke-width="2.4" stroke-linecap="round" stroke-linejoin="round"/>
<path d="M18.5634 27.67L9.02344 32.47" stroke="#FC800A" stroke-width="2.4" stroke-linecap="round" stroke-linejoin="round"/>
<path d="M12.5638 21.13L1.34375 26.77L9.02375 32.47" stroke="#FC800A" stroke-width="2.4" stroke-linecap="round" stroke-linejoin="round"/>
<path d="M39.3828 21.13L50.6628 26.77L42.9828 32.47" stroke="#FC800A" stroke-width="2.4" stroke-linecap="round" stroke-linejoin="round"/>
<path d="M42.9853 32.47L33.4453 27.67" stroke="#FC800A" stroke-width="2.4" stroke-linecap="round" stroke-linejoin="round"/>
</svg>
