<svg width="82" height="83" viewBox="0 0 82 83" fill="none" xmlns="http://www.w3.org/2000/svg">
<g clip-path="url(#clip0_182_2960)">
<path d="M75.1745 18.9817H30.7578C26.9995 18.9817 23.9245 22.0567 23.9245 25.815V56.565C23.9245 58.3773 24.6444 60.1154 25.9259 61.3969C27.2074 62.6784 28.9455 63.3984 30.7578 63.3984H75.1745C78.967 63.3984 82.0078 60.3575 82.0078 56.565V25.815C82.0078 24.0027 81.2879 22.2646 80.0064 20.9831C78.7249 19.7016 76.9868 18.9817 75.1745 18.9817ZM75.1745 56.565H30.7578V31.5209L52.9661 42.8984L75.1745 31.5209V56.565ZM52.9661 37.1242L30.7578 25.815H75.1745L52.9661 37.1242ZM17.0911 56.565C17.0911 57.1459 17.1936 57.6925 17.262 58.2734H3.42448C1.53848 58.2734 0.0078125 56.7359 0.0078125 54.8567C0.0078125 52.9775 1.53848 51.44 3.42448 51.44H17.0911V56.565ZM10.2578 24.1067H17.262C17.1936 24.6875 17.0911 25.2342 17.0911 25.815V30.94H10.2578C8.37865 30.94 6.84115 29.4025 6.84115 27.5234C6.84115 25.6442 8.37865 24.1067 10.2578 24.1067ZM3.42448 41.19C3.42448 39.3109 4.96198 37.7734 6.84115 37.7734H17.0911V44.6067H6.84115C4.96198 44.6067 3.42448 43.0692 3.42448 41.19Z" fill="white"/>
</g>
<defs>
<clipPath id="clip0_182_2960">
<rect width="82" height="82" fill="white" transform="translate(0.0078125 0.190002)"/>
</clipPath>
</defs>
</svg>
