<svg width="21" height="27" viewBox="0 0 21 27" fill="none" xmlns="http://www.w3.org/2000/svg">
<path d="M10.5119 0.623352C4.72526 0.623352 0.0585938 4.97891 0.0585938 10.3922C0.0585938 15.8056 4.72526 20.1611 10.5119 20.1611C16.2986 20.1611 20.9653 15.8056 20.9653 10.3922C20.9653 4.97891 16.2986 0.623352 10.5119 0.623352ZM10.5119 15.8678C9.01859 15.93 7.52526 15.37 6.46748 14.3122C5.34748 13.2545 4.72526 11.8856 4.66304 10.33C4.78748 8.83669 5.40971 7.4678 6.52971 6.47224C7.58748 5.47669 9.01859 4.91669 10.5119 4.91669C12.0053 4.91669 13.4364 5.47669 14.4941 6.47224C15.5519 7.4678 16.2364 8.89891 16.3608 10.33C16.2986 11.8234 15.6764 13.2545 14.5564 14.3122C13.4986 15.37 12.0053 15.93 10.5119 15.8678Z" fill="white"/>
<path d="M10.511 21.2189C8.95542 21.2189 7.39986 20.97 5.96875 20.5345L10.511 26.6945L15.0532 20.5345C13.6221 21.0323 12.0665 21.2812 10.511 21.2189Z" fill="white"/>
</svg>
