<svg width="27" height="20" viewBox="0 0 27 20" fill="none" xmlns="http://www.w3.org/2000/svg">
<path d="M9.7765 10.4493C6.9765 7.85667 1.3765 2.56778 0.754282 1.94556C0.546875 2.25667 0.546875 2.67148 0.546875 2.98259V17.6048C0.546875 17.9159 0.650579 18.3307 0.754282 18.6419L9.7765 10.4493Z" fill="white"/>
<path d="M11.9545 10.9678C12.162 11.1752 12.3694 11.3826 12.6805 11.59C12.9916 11.6937 13.3027 11.7974 13.5101 11.7974C13.8212 11.7974 14.1323 11.6937 14.3397 11.59C14.6508 11.4863 14.8582 11.2789 15.0657 10.9678C16.1027 10.0344 23.8805 2.56777 25.436 1.11592C25.1249 0.908513 24.8138 0.80481 24.399 0.80481H2.62121C2.20639 0.80481 1.79158 0.908513 1.48047 1.11592C2.10269 1.84185 10.5027 9.72333 11.9545 10.9678Z" fill="white"/>
<path d="M26.1628 1.84186C25.0221 2.9826 19.6295 8.06408 17.1406 10.4493L26.0591 18.8493L25.6443 19.2641C25.9554 19.0567 26.1628 18.8493 26.2666 18.5382C26.474 18.227 26.474 17.9159 26.474 17.6048V2.9826C26.474 2.56778 26.3703 2.15297 26.1628 1.84186Z" fill="white"/>
<path d="M16.3083 11.1752C16.1009 11.3826 15.8935 11.59 15.6861 11.6937C15.375 12.0048 15.0639 12.3159 14.6491 12.4196C14.2343 12.627 13.8194 12.7307 13.4046 12.7307C12.9898 12.7307 12.575 12.627 12.1602 12.4196C11.7454 12.2122 11.4343 12.0048 11.1231 11.59C11.0194 11.4863 10.812 11.2789 10.5009 11.0715L1.375 19.2641C1.68611 19.4715 2.10093 19.5752 2.51574 19.5752H24.3972C24.7083 19.5752 24.9157 19.4715 25.2269 19.3678L16.3083 11.1752Z" fill="white"/>
</svg>
