<svg width="15" height="15" viewBox="0 0 15 15" fill="none" xmlns="http://www.w3.org/2000/svg">
<path fill-rule="evenodd" clip-rule="evenodd" d="M5.61146 3.06934C5.61146 2.78531 5.84171 2.55505 6.12574 2.55505L12.0121 2.55505C12.1485 2.55505 12.2793 2.60924 12.3757 2.70568C12.4722 2.80213 12.5263 2.93294 12.5263 3.06934L12.5263 8.95566C12.5263 9.23969 12.2961 9.46994 12.0121 9.46994C11.728 9.46994 11.4978 9.23969 11.4978 8.95566L11.4978 3.58362L6.12574 3.58362C5.84171 3.58362 5.61146 3.35337 5.61146 3.06934Z" fill="#1A932E"/>
<path fill-rule="evenodd" clip-rule="evenodd" d="M3.3949 11.6752C3.19406 11.4743 3.19406 11.1487 3.3949 10.9479L11.5553 2.78751C11.7561 2.58667 12.0817 2.58667 12.2826 2.78751C12.4834 2.98835 12.4834 3.31398 12.2826 3.51482L4.12221 11.6752C3.92137 11.876 3.59574 11.876 3.3949 11.6752Z" fill="#1A932E"/>
</svg>
